<svg xmlns="http://www.w3.org/2000/svg" width="18" height="18" viewBox="0 0 400 400"><path fill="#FFF" d="M127.842477 358.019975c146.773207 0 227.051959-121.600528 227.051959-227.051959 0-3.453853 0-6.892149-.233368-10.314886a162.36222 162.36222 0 0 0 39.81266-41.306218 159.281757 159.281757 0 0 1-45.833567 12.555223 80.076499 80.076499 0 0 0 35.083059-44.137756 159.91963 159.91963 0 0 1-50.672073 19.369583 79.874247 79.874247 0 0 0-135.991584 72.779845A226.554106 226.554106 0 0 1 32.597026 56.539033a79.858689 79.858689 0 0 0 24.705942 106.524926 79.205257 79.205257 0 0 1-36.218786-9.98817v1.011263a79.827573 79.827573 0 0 0 64.020749 78.22511 79.671994 79.671994 0 0 1-36.032091 1.369095 79.889805 79.889805 0 0 0 74.553446 55.417232 160.121883 160.121883 0 0 1-99.103808 34.227375 162.44001 162.44001 0 0 1-18.996193-1.151284 225.916233 225.916233 0 0 0 122.316192 35.783165"/></svg>
